<?xml version="1.0" encoding="UTF-8"?>
<svg version="1.1" viewBox="0 0 420 265.5" xmlns="http://www.w3.org/2000/svg">
 <g transform="translate(-131.43 -295.11)">
  <path d="m430.4 415.52c8.0938 36.021 41.968 82.04-12.134 95.416 11.598-7.0118 9.3471-38.719 10.416-50.845-3.7384 14.865-1.9419 45.597-18.113 49.715-38.968-36.664 12.739-65.861 19.831-94.285z"/>
  <path d="m289.61 502.31c28.971 52.65 69.546 38.418 97.136 10.52-17.004-6.2388-39.608-0.55934-54.048 0.11177 21.043-5.2595 33.684-7.3712 52.321-5.316-24.252-30.558-72.84 1.2576-95.409-5.3161z"/>
  <path d="m393.57 491.73c-5.1409-17.188-2.9186-26.719 6.8189-37.451-2.6207-17.066-25.463-26.746-27.613-42.034-19.249 30.983-17.699 57.612 12.266 71.272-4.5836-13.934-11.692-25.955-10.169-37.11 1.3419 13.996 11.125 27.957 18.697 45.323z"/>
  <path d="m151.43 373.79c202.84 0 184.51 177.52 380 151.43l-8.4348 13.939c-167.47 18.83-197.57-163.68-367.98-161.76-2.7431-1.3083-3.5954-3.6074-3.5954-3.6074z"/>
  <path d="m174.45 437.88c21.132-9.5848 14.207-52.639 61.205-42.523-3.6284-0.87641-26.126 8.6564-30.075 22.594-0.21048 0.74288 7.9876-12.862 30.099-21.045 2.2564-0.83504 14.075 2.9849 15.648 4.5676-5.9766 30.389-66.51 32.817-76.876 36.406z"/>
  <path d="m311.46 331.42c-45.44-11.07-39.26 70.03-19.83 87.69l9.9055 4.0459c-35.512-48.137-16.694-96.304 6.7021-90.141 0.85806 0.22605 2.3998-1.1738 3.2235-1.5935z"/>
  <path d="m249.9 315.11c-13.858 28.999-12.366 58.366 25.321 66.053-14.266-4.3247-20.605-26.425-24.364-39.474 3.7294 10.863 12.272 29.761 19.896 30.945 6.6933-26.265-14.626-39.877-20.853-57.523z"/>
  <path d="m332.86 455.22c-51.09-15.51-139.72-6.73-132.5 49.226 0.9884 8.8677 12.141 20.424 20.325 17.418l1.3995-1.9578c-9.7614 3.0038-19.064-9.6504-19.455-16.389-3.6458-62.809 109.17-51.53 142.56-39.547z"/>
  <path d="m241.78 490.3c23.924-8.6084 42.289-7.1307 46.467-32.199-13.414-0.28081-16.776 7.8648-25.254 14.647 4.9209-10.697 13.611-13.259 16.498-15.291-36.512 4.9174-24.991 28.603-37.711 32.843z"/>
  <path d="m330.4 354.88c1.0349 2.5314 2.7607 4.567 5.1788 7.4124-0.64542 5.1587 0.36789 8.0998 2.7784 12.187 6.5014 11.025 20.781 18.746 33.851 19.605 5.0897-0.26515 16.125-1.4323 20.388-3.4878 8.6417-1.4783 31.865-4.8981 33.914-5.1196 3.5474-0.38339 4.6574-0.64773 23.816 1.3484-5.3238-5.8748-12.831-4.0564-24.234-6.728 15.326-1.1013 9.9938-2.9579-1.9868-5.5078-33.033-9.0287-33.096-26.132-59.565-30.413-7.5414-13.098-25.454-16.32-33.945 1.5375-4.2326 0.69252-6.9469 3.6479-9.5439 6.037 1.1897 0.56772 5.6622 2.2819 9.3485 3.129z"/>
  <path d="m382.86 390.59c-18.937 3.7113-40.905 18.042-27.376 81.612l-9.2297-10.49c-3.7257-45.112 8.4178-67.653 30.84-71.705z"/>
  <path d="m310.13 401.29c14.136 0.26807 43.237 4.8739 35.692 23.256-3.9734-6.9678-7.7814-12.67-17.405-12.806 10.429 2.6066 16.145 16.403 15.707 16.938-18.683 0.53342-25.364-17.793-33.995-27.388z"/>
 </g>
</svg>
